<svg xmlns="http://www.w3.org/2000/svg" viewBox="0 0 512 512">
  <defs>
    <linearGradient id="bg" x1="0%" y1="0%" x2="100%" y2="100%">
      <stop offset="0%" style="stop-color:#1a1a2e"/>
      <stop offset="100%" style="stop-color:#0f0f1a"/>
    </linearGradient>
    <linearGradient id="glow" x1="0%" y1="0%" x2="100%" y2="100%">
      <stop offset="0%" style="stop-color:#00d4ff"/>
      <stop offset="50%" style="stop-color:#7b2cbf"/>
      <stop offset="100%" style="stop-color:#ff006e"/>
    </linearGradient>
  </defs>
  <!-- Background -->
  <rect width="512" height="512" rx="80" fill="url(#bg)"/>
  <!-- Outer ring -->
  <circle cx="256" cy="256" r="180" fill="none" stroke="url(#glow)" stroke-width="8" opacity="0.6"/>
  <!-- Inner hexagon -->
  <polygon points="256,100 366,178 366,334 256,412 146,334 146,178" fill="none" stroke="url(#glow)" stroke-width="6"/>
  <!-- D letter stylized -->
  <path d="M180,180 L180,332 L260,332 C320,332 350,290 350,256 C350,222 320,180 260,180 Z M220,220 L260,220 C290,220 310,235 310,256 C310,277 290,292 260,292 L220,292 Z" fill="url(#glow)"/>
  <!-- Digital particles -->
  <circle cx="400" cy="140" r="6" fill="#00d4ff" opacity="0.8"/>
  <circle cx="120" cy="380" r="4" fill="#7b2cbf" opacity="0.8"/>
  <circle cx="380" cy="400" r="5" fill="#ff006e" opacity="0.8"/>
  <circle cx="140" cy="120" r="4" fill="#00d4ff" opacity="0.6"/>
</svg>
